<svg id="eOeRzM1ImEP1" xmlns="http://www.w3.org/2000/svg" xmlns:xlink="http://www.w3.org/1999/xlink" viewBox="0 0 120 62" shape-rendering="geometricPrecision" text-rendering="geometricPrecision"><style><![CDATA[#eOeRzM1ImEP2 {animation: eOeRzM1ImEP2_c_o 800ms linear 1 normal forwards}@keyframes eOeRzM1ImEP2_c_o { 0% {opacity: 0} 75% {opacity: 1} 100% {opacity: 1}} #eOeRzM1ImEP3_to {animation: eOeRzM1ImEP3_to__to 800ms linear 1 normal forwards}@keyframes eOeRzM1ImEP3_to__to { 0% {transform: translate(148px,11.66115px)} 75% {transform: translate(98px,19.66115px)} 100% {transform: translate(98px,19.66115px)}}]]></style><path id="eOeRzM1ImEP2" d="M11.7172,61.5984c3.5876,0,6.0232-1.4839,7.5702-3.7262l.5924,3.2976h2.4027v-13.0585h-10.269v3.8912h6.5498c-.6583,2.9678-2.8306,5.3091-6.8461,5.3091-4.77244,0-7.24095-3.8252-7.24095-7.6834c0-3.8252,2.46851-7.6833,7.24095-7.6833c2.4027,0,4.213.9892,5.4308,2.4731l3.6863-2.4731c-2.0736-2.6381-5.2991-4.2539-9.1171-4.2539C4.87121,37.691,0,42.8682,0,49.6282c0,6.7601,4.87121,11.9702,11.7172,11.9702Zm17.4333-.4286v-6.892c0-3.0997.6253-6.2654,5.5623-5.6718v-4.5507c-2.0077,0-4.3116,1.0552-5.5623,3.1327v-2.737h-4.1801v16.7188h4.1801Zm14.8988.4286c5.0358,0,8.8209-3.8911,8.8209-8.7715c0-4.9134-3.7851-8.7716-8.8209-8.7716-5.0028,0-8.7879,3.8582-8.7879,8.7716c0,4.8804,3.7851,8.7715,8.7879,8.7715Zm0-4.023c-2.7647,0-4.5091-2.1434-4.5091-4.7485s1.7444-4.7485,4.5091-4.7485c2.7977,0,4.5421,2.1434,4.5421,4.7485s-1.7444,4.7485-4.5421,4.7485Zm17.8611,3.5944L65.2347,51.31l3.3572,9.8598h3.7192L77.9064,44.451h-4.5091L70.1717,55.0692L66.6171,44.451h-2.7319L60.2977,55.0692L57.105,44.451h-4.5091l5.5953,16.7188h3.7192Zm23.0615,0v-12.8936h3.5875v-3.8252h-3.5875c0-2.0445.7241-3.1986,2.8634-3.1986.2634,0,.4938.0329.7241.0329v-3.4954c-.5595-.0989-.9215-.1319-1.7444-.1319-4.5091,0-6.0232,3.3635-6.0232,6.793h-2.3368v3.8252h2.3368v12.8936h4.1801Zm7.5262-19.159c1.2507,0,2.2381-.9893,2.2381-2.2423c0-1.2201-.9874-2.2094-2.2381-2.2094-1.2178,0-2.2052.9893-2.2052,2.2094c0,1.253.9874,2.2423,2.2052,2.2423Zm2.1065,19.159v-16.7188h-4.1801v16.7188h4.1801Zm6.9994,0v-9.2992c0-1.9126,1.086-3.7593,3.555-3.7593c2.37,0,3.258,1.6159,3.258,3.7593v9.2992h4.18v-10.1566c0-3.5284-1.909-6.9579-6.122-6.9579-2.435,0-3.949,1.0882-4.871,2.4402v-2.0445h-4.1469v16.7188h4.1469Z" opacity="0" fill="#fff"/><g id="eOeRzM1ImEP3_to" transform="translate(148,11.66115)"><g transform="translate(-98.004451,-21.661149)"><path d="M76.2649,30.0677C81.8218,16.8368,92.5581,9.00078,108.985,5.4668c-3.538,5.3852-3.532,10.2647-1.828,13.2449c1.705,2.9803,9.521,7.5456,12.587,19.1438-8.282-6.4988-16.253-10.0689-23.9113-10.7101-7.6587-.6413-14.0109-.0314-19.5678,2.9223Z" clip-rule="evenodd" fill="#00d4c7" fill-rule="evenodd"/><path d="M96.0024,22.3006c.6306-1.3162,1.1452-2.2662,1.5438-2.8501c1.0045-1.4715,2.2442-2.7337,3.7188-3.7867c1.212-.8651,2.583-1.589,4.112-2.1716.231-.0882.466-.1731.705-.2549-.058.9081-.192,2.6771.759,4.8545.18.4121.469.9472.912,1.4611c1.273,1.475,3.107,3.1802,3.995,4.1789.505.568.958,1.0395.91,1.0035-3.066-2.2916-6.022-3.5563-8.868-3.794-3.009-.2512-5.6045.2019-7.7876,1.3593Z" clip-rule="evenodd" fill-opacity="0.15" fill-rule="evenodd"/></g></g></svg>